<?xml version="1.0" encoding="utf-8"?>
<svg version="1.1" xmlns:xlink="http://www.w3.org/1999/xlink" width="27px" height="50px" xmlns="http://www.w3.org/2000/svg">
  <g transform="matrix(1 0 0 1 -432 -8604 )">
    <path d="M 25.6169265033408 12.7103365384615  C 25.9977728285078 12.7103365384615  26.3385300668151 12.8605769230769  26.6391982182628 13.1610576923077  C 27 13.5616987179487  27.0701559020045 14.0024038461538  26.8496659242762 14.4831730769231  L 10.6135857461024 49.2487980769231  C 10.3530066815145 49.7495993589744  9.93207126948775 50  9.35077951002227 50  C 9.2706013363029 50  9.13028953229399 49.9799679487179  8.92984409799555 49.9399038461538  C 8.5890868596882 49.8397435897436  8.33351893095768 49.6494391025641  8.16314031180401 49.3689903846154  C 7.99276169265034 49.0885416666667  7.94766146993319 48.7880608974359  8.02783964365256 48.4675480769231  L 13.9510022271715 24.1887019230769  L 1.74387527839644 27.2235576923077  C 1.66369710467706 27.2435897435897  1.543429844098 27.2536057692308  1.38307349665924 27.2536057692308  C 1.02227171492205 27.2536057692308  0.711581291759466 27.1434294871795  0.451002227171492 26.9230769230769  C 0.0902004454342984 26.6225961538462  -0.0400890868596882 26.2319711538462  0.0601336302895323 25.7512019230769  L 6.10356347438753 0.961538461538464  C 6.1837416481069 0.681089743589741  6.34409799554566 0.450721153846156  6.58463251670379 0.270432692307693  C 6.82516703786192 0.0901442307692291  7.10579064587973 0  7.42650334075724 0  L 17.2884187082405 0  C 17.6692650334076 0  17.9899777282851 0.125200320512814  18.2505567928731 0.375600961538464  C 18.511135857461 0.626001602564102  18.641425389755 0.921474358974356  18.641425389755 1.26201923076923  C 18.641425389755 1.42227564102564  18.5913140311804 1.6025641025641  18.4910913140312 1.80288461538461  L 13.3496659242762 15.7151442307692  L 25.2561247216036 12.7704326923077  C 25.4164810690423 12.7303685897436  25.5367483296214 12.7103365384615  25.6169265033408 12.7103365384615  Z " fill-rule="nonzero" fill="#131f4f" stroke="none" transform="matrix(1 0 0 1 432 8604 )" />
  </g>
</svg>