<?xml version="1.0" encoding="utf-8"?>
<svg version="1.1" xmlns:xlink="http://www.w3.org/1999/xlink" width="46px" height="50px" xmlns="http://www.w3.org/2000/svg">
  <g transform="matrix(1 0 0 1 -403 -1831 )">
    <path d="M 20.2079326923077 4.67354910714286  C 19.5260416666667 3.93880208333333  18.6875 3.57142857142857  17.6923076923077 3.57142857142857  C 16.7155448717949 3.57142857142857  15.8816105769231 3.92020089285715  15.1905048076923 4.61774553571428  C 14.4993990384615 5.31529017857143  14.1538461538462 6.15699404761904  15 7.14285714285715  L 15 21.4285714285714  L 14.1538461538462 32.1428571428571  L 9.97956730769231 26.5066964285714  C 9.22395833333333 25.5022321428571  8.23798076923077 25  7.02163461538462 25  C 6.06330128205128 25  5.2431891025641 25.3534226190476  4.56129807692308 26.0602678571429  C 3.87940705128205 26.7671130952381  3.53846153846154 27.6041666666667  3.53846153846154 28.5714285714286  C 3.53846153846154 29.3712797619048  3.77804487179487 30.0874255952381  4.25721153846154 30.7198660714286  L 14.8725961538462 45.0055803571429  C 15.5729166666667 45.9542410714286  16.5128205128205 46.4285714285714  17.6923076923077 46  L 37.5408653846154 46  C 37.9463141025641 46.4285714285714  38.310296474359 46.3030133928571  38.6328125 46.0518973214286  C 38.955328525641 45.80078125  39.1626602564103 45.4799107142857  39.2548076923077 45.0892857142857  L 41.7980769230769 34.8214285714286  C 42.2403846153846 33.0357142857143  42.4615384615385 31.2313988095238  42.4615384615385 29.4084821428571  L 42.4615384615385 23.3537946428571  C 42.4615384615385 22.5911458333333  42.2035256410256 21.9308035714286  41.6875 21.3727678571429  C 41.1714743589744 20.8147321428571  40.5448717948718 20.5357142857143  39.8076923076923 20.5357142857143  C 39.0705128205128 20.5357142857143  38.4439102564103 20.7961309523809  37.9278846153846 21.3169642857143  C 37.411858974359 21.8377976190476  37.1538461538462 22.4702380952381  37.1538461538462 23.2142857142857  L 36.2692307692308 23.2142857142857  L 36.2692307692308 21.5122767857143  C 36.2692307692308 20.6194196428571  35.974358974359 19.8614211309524  35.3846153846154 19.23828125  C 34.7948717948718 18.6151413690476  34.0576923076923 18.3035714285714  33.1730769230769 18.3035714285714  C 32.3253205128205 18.3035714285714  31.5973557692308 18.6104910714286  30.9891826923077 19.2243303571429  C 30.3810096153846 19.8381696428571  30.0769230769231 20.5729166666667  30.0769230769231 21.4285714285714  L 30.0769230769231 23.2142857142857  L 29.1923076923077 23.2142857142857  L 29.1923076923077 20.703125  C 29.1923076923077 19.6800595238095  28.8513621794872 18.8011532738095  28.1694711538462 18.06640625  C 27.4875801282051 17.3316592261905  26.6490384615385 16.9642857142857  25.6538461538462 16.9642857142857  C 24.6770833333333 16.9642857142857  23.8431490384615 17.3130580357143  23.1520432692308 18.0106026785714  C 22.4609375 18.7081473214286  22.1153846153846 19.5498511904762  22.1153846153846 20.5357142857143  L 22.1153846153846 23.2142857142857  L 22 23.2142857142857  L 22 7.31026785714286  C 21.2307692307692 6.28720238095238  20.8898237179487 5.40829613095238  20.2079326923077 4.67354910714286  Z M 12.6887019230769 2.09263392857143  C 14.0709134615385 0.697544642857145  15.7387820512821 0  17.6923076923077 0  C 19.6642628205128 0  21.3367387820513 0.720796130952384  22.7097355769231 2.16238839285715  C 24.0827323717949 3.6039806547619  24.7692307692308 5.31994047619047  24.7692307692308 7.31026785714286  L 24.7692307692308 13.4486607142857  C 25.1746794871795 13.4114583333333  25.4695512820513 13.3928571428571  25.6538461538462 13.3928571428571  C 27.4783653846154 13.3928571428571  29.072516025641 14.0345982142857  30.4362980769231 15.3180803571429  C 31.302483974359 14.9274553571429  32.2147435897436 14.7321428571429  33.1730769230769 14.7321428571429  C 35.255608974359 14.7321428571429  36.9511217948718 15.5412946428571  38.2596153846154 17.1595982142857  C 38.7572115384615 17.0293898809524  39.2732371794872 16.9642857142857  39.8076923076923 16.9642857142857  C 41.5400641025641 16.9642857142857  43.0052083333333 17.5920758928571  44.203125 18.84765625  C 45.4010416666667 20.1032366071429  46 21.6052827380952  46 23.3537946428571  L 46 29.4084821428571  C 46 31.5662202380952  45.7419871794872 33.6588541666667  45.2259615384615 35.6863839285714  L 42.6826923076923 45.9542410714286  C 42.3878205128205 47.1447172619048  41.7612179487179 48.1166294642857  40.8028846153846 48.8699776785714  C 39.8445512820513 49.6233258928571  38.7572115384615 50  37.5408653846154 50  L 17.6923076923077 50  C 16.5865384615385 50  15.5314503205128 49.7442336309524  14.5270432692308 49.2327008928571  C 13.5226362179487 48.7211681547619  12.6887019230769 48.0282738095238  12.0252403846154 47.1540178571429  L 1.40985576923077 32.8683035714286  C 0.469951923076923 31.6034226190476  0 30.171130952381  0 28.5714285714286  C 0 26.6183035714286  0.686498397435897 24.9395461309524  2.05949519230769 23.53515625  C 3.43249198717949 22.1307663690476  5.08653846153846 21.4285714285714  7.02163461538462 21.4285714285714  C 8.33012820512821 21.4285714285714  9.52804487179487 21.7540922619048  11 22.4051339285714  L 11 7.14285714285715  C 10.6153846153846 5.17113095238095  11.3064903846154 3.48772321428572  12.6887019230769 2.09263392857143  Z M 21 39.2857142857143  L 22 39.2857142857143  L 22 28.5714285714286  L 21 28.5714285714286  L 21 39.2857142857143  Z M 27 39.2857142857143  L 28 39.2857142857143  L 28 28.5714285714286  L 27 28.5714285714286  L 27 39.2857142857143  Z M 34 39.2857142857143  L 35 39.2857142857143  L 35 28.5714285714286  L 34 28.5714285714286  L 34 39.2857142857143  Z " fill-rule="nonzero" fill="#000000" stroke="none" transform="matrix(1 0 0 1 403 1831 )" />
  </g>
</svg>