<?xml version="1.0" encoding="utf-8"?>
<svg version="1.1" xmlns:xlink="http://www.w3.org/1999/xlink" width="12px" height="20px" xmlns="http://www.w3.org/2000/svg">
  <g transform="matrix(1 0 0 1 -861 -1509 )">
    <path d="M 11.7938144329897 1.20240480961924  C 11.9312714776632 1.33600534402137  12 1.48964595858383  12 1.66332665330661  C 12 1.83700734802939  11.9312714776632 1.99064796259185  11.7938144329897 2.12424849699399  L 3.69072164948454 10  L 11.7938144329897 17.875751503006  C 11.9312714776632 18.0093520374081  12 18.1629926519706  12 18.3366733466934  C 12 18.5103540414162  11.9312714776632 18.6639946559786  11.7938144329897 18.7975951903808  L 10.7628865979381 19.7995991983968  C 10.6254295532646 19.9331997327989  10.46735395189 20  10.2886597938144 20  C 10.1099656357388 20  9.95189003436426 19.9331997327989  9.81443298969072 19.7995991983968  L 0.206185567010309 10.4609218436874  C 0.0687285223367698 10.3273213092852  0 10.1736806947228  0 10  C 0 9.82631930527722  0.0687285223367698 9.67267869071476  0.206185567010309 9.53907815631263  L 9.81443298969072 0.200400801603207  C 9.95189003436426 0.0668002672010681  10.1099656357388 0  10.2886597938144 0  C 10.46735395189 0  10.6254295532646 0.0668002672010681  10.7628865979381 0.200400801603207  L 11.7938144329897 1.20240480961924  Z " fill-rule="nonzero" fill="#000000" stroke="none" transform="matrix(1 0 0 1 861 1509 )" />
  </g>
</svg>