<?xml version="1.0" encoding="utf-8"?>
<svg version="1.1" xmlns:xlink="http://www.w3.org/1999/xlink" width="48px" height="50px" xmlns="http://www.w3.org/2000/svg">
  <g transform="matrix(1 0 0 1 -102 -2635 )">
    <path d="M 38.9086651053864 31.2255723059743  C 39.7611241217799 29.2434394193188  40.1873536299766 27.1635957565606  40.1873536299766 24.9860413176996  C 40.1873536299766 22.8084868788386  39.7611241217799 20.7286432160804  38.9086651053864 18.7465103294249  C 38.056206088993 16.7643774427694  36.903981264637 15.0521124139215  35.4519906323185 13.6097152428811  C 34 12.1673180718407  32.2763466042155 11.0227061232086  30.2810304449649 10.1758793969849  C 28.2857142857143 9.32905267076121  26.192037470726 8.90563930764936  24 8.90563930764936  C 21.807962529274 8.90563930764936  19.7142857142857 9.32905267076121  17.7189695550351 10.1758793969849  C 15.7236533957845 11.0227061232086  14 12.1673180718407  12.5480093676815 13.6097152428811  C 11.096018735363 15.0521124139215  9.94379391100703 16.7643774427694  9.09133489461358 18.7465103294249  C 8.23887587822014 20.7286432160804  7.81264637002342 22.8084868788386  7.81264637002342 24.9860413176996  C 7.81264637002342 27.1635957565606  8.23887587822014 29.2434394193188  9.09133489461358 31.2255723059743  C 9.94379391100703 33.2077051926298  11.096018735363 34.9199702214778  12.5480093676815 36.3623673925181  C 14 37.8047645635585  15.7236533957845 38.9493765121906  17.7189695550351 39.7962032384143  C 19.7142857142857 40.643029964638  21.807962529274 41.0664433277499  24 41.0664433277499  C 26.192037470726 41.0664433277499  28.2857142857143 40.643029964638  30.2810304449649 39.7962032384143  C 32.2763466042155 38.9493765121906  34 37.8047645635585  35.4519906323185 36.3623673925181  C 36.903981264637 34.9199702214778  38.056206088993 33.2077051926298  38.9086651053864 31.2255723059743  Z M 47.8313817330211 31.9095477386935  C 48 32.1328866554997  48.0374707259953 32.4027545133073  47.943793911007 32.7191513121161  C 47.8688524590164 32.998324958124  47.6814988290398 33.1844407221292  47.3817330210773 33.2774986041318  L 39.175644028103 35.9575656058068  L 39.175644028103 44.500279173646  C 39.175644028103 44.7980643960544  39.0538641686183 45.0400148892611  38.8103044496487 45.2261306532663  C 38.5292740046838 45.4122464172715  38.2576112412178 45.4494695700726  37.9953161592506 45.3378001116695  L 29.7892271662763 42.713567839196  L 24.7306791569087 49.6370742601898  C 24.5433255269321 49.8790247533966  24.2997658079625 50  24 50  C 23.7002341920375 50  23.4566744730679 49.8790247533966  23.2693208430913 49.6370742601898  L 18.2107728337237 42.713567839196  L 10.0046838407494 45.3378001116695  C 9.7423887587822 45.4494695700726  9.47072599531616 45.4122464172715  9.18969555035129 45.2261306532663  C 8.94613583138173 45.0400148892611  8.82435597189696 44.7980643960544  8.82435597189696 44.500279173646  L 8.82435597189696 35.9575656058068  L 0.618266978922717 33.2774986041318  C 0.318501170960187 33.1844407221292  0.131147540983606 32.998324958124  0.0562060889929742 32.7191513121161  C -0.037470725995316 32.4027545133073  0 32.1328866554997  0.168618266978923 31.9095477386935  L 5.2271662763466 24.9860413176996  L 0.168618266978923 18.0625348967057  C 0 17.820584403499  -0.037470725995316 17.5507165456914  0.0562060889929742 17.2529313232831  C 0.131147540983606 16.9737576772753  0.318501170960187 16.7876419132701  0.618266978922717 16.6945840312675  L 8.82435597189696 14.0145170295924  L 8.82435597189696 5.47180346175321  C 8.82435597189696 5.17401823934487  8.94613583138173 4.93206774613809  9.18969555035129 4.74595198213288  C 9.47072599531616 4.55983621812767  9.7423887587822 4.52261306532663  10.0046838407494 4.63428252372976  L 18.2107728337237 7.25851479620324  L 23.2693208430913 0.335008375209378  C 23.4379391100703 0.111669458403124  23.6814988290398 0  24 0  C 24.3185011709602 0  24.5620608899297 0.111669458403124  24.7306791569087 0.335008375209378  L 29.7892271662763 7.25851479620324  L 37.9953161592506 4.63428252372976  C 38.2576112412178 4.52261306532663  38.5292740046838 4.55983621812767  38.8103044496487 4.74595198213288  C 39.0538641686183 4.93206774613809  39.175644028103 5.17401823934487  39.175644028103 5.47180346175321  L 39.175644028103 14.0145170295924  L 47.3817330210773 16.6945840312675  C 47.6814988290398 16.7876419132701  47.8688524590164 16.9737576772753  47.943793911007 17.2529313232831  C 48.0374707259953 17.5507165456914  48 17.820584403499  47.8313817330211 18.0625348967057  L 42.7728337236534 24.9860413176996  L 47.8313817330211 31.9095477386935  Z " fill-rule="nonzero" fill="#f2622a" stroke="none" transform="matrix(1 0 0 1 102 2635 )" />
  </g>
</svg>