<?xml version="1.0" encoding="utf-8"?>
<svg version="1.1" xmlns:xlink="http://www.w3.org/1999/xlink" width="50px" height="29px" xmlns="http://www.w3.org/2000/svg">
  <g transform="matrix(1 0 0 1 -172 -2787 )">
    <path d="M 49.498997995992 23.7182130584192  C 49.8329993319973 24.0504009163803  50 24.4324169530355  50 24.8642611683849  C 50 25.2961053837342  49.8329993319973 25.6781214203895  49.498997995992 26.0103092783505  L 46.9939879759519 28.5017182130584  C 46.6599866399466 28.8339060710195  46.2758851035404 29  45.8416833667335 29  C 45.4074816299265 29  45.0233800935204 28.8339060710195  44.689378757515 28.5017182130584  L 25 8.9192439862543  L 5.31062124248497 28.5017182130584  C 4.97661990647963 28.8339060710195  4.59251837007348 29  4.15831663326653 29  C 3.72411489645959 29  3.34001336005344 28.8339060710195  3.0060120240481 28.5017182130584  L 0.501002004008016 26.0103092783505  C 0.167000668002672 25.6781214203895  0 25.2961053837342  0 24.8642611683849  C 0 24.4324169530355  0.167000668002672 24.0504009163803  0.501002004008016 23.7182130584192  L 23.8476953907816 0.498281786941582  C 24.1816967267869 0.166093928980523  24.5657982631931 0  25 0  C 25.4342017368069 0  25.8183032732131 0.166093928980523  26.1523046092184 0.498281786941582  L 49.498997995992 23.7182130584192  Z " fill-rule="nonzero" fill="#6c6c6c" stroke="none" transform="matrix(1 0 0 1 172 2787 )" />
  </g>
</svg>