<?xml version="1.0" encoding="utf-8"?>
<svg version="1.1" xmlns:xlink="http://www.w3.org/1999/xlink" width="22px" height="50px" xmlns="http://www.w3.org/2000/svg">
  <g transform="matrix(1 0 0 1 -222 -2777 )">
    <path d="M 21.7428571428571 11.400462962963  C 21.9904761904762 11.7091049382716  22.0380952380952 12.0466820987654  21.8857142857143 12.4131944444444  C 21.7142857142857 12.7797067901235  21.4380952380952 12.962962962963  21.0571428571429 12.962962962963  L 14.6571428571429 12.962962962963  L 14.6571428571429 49.0740740740741  C 14.6571428571429 49.3441358024691  14.5714285714286 49.5659722222222  14.4 49.7395833333333  C 14.2285714285714 49.9131944444444  14.0095238095238 50  13.7428571428571 50  L 8.25714285714286 50  C 7.99047619047619 50  7.77142857142857 49.9131944444444  7.6 49.7395833333333  C 7.42857142857143 49.5659722222222  7.34285714285714 49.3441358024691  7.34285714285714 49.0740740740741  L 7.34285714285714 12.962962962963  L 0.942857142857143 12.962962962963  C 0.542857142857143 12.962962962963  0.266666666666667 12.7797067901235  0.114285714285714 12.4131944444444  C -0.0380952380952381 12.0466820987654  0.0095238095238095 11.7091049382716  0.257142857142857 11.400462962963  L 10.2571428571429 0.289351851851855  C 10.447619047619 0.0964506172839497  10.6666666666667 0  10.9142857142857 0  C 11.1809523809524 0  11.4095238095238 0.0964506172839497  11.6 0.289351851851855  L 21.7428571428571 11.400462962963  Z " fill-rule="nonzero" fill="#000000" stroke="none" transform="matrix(1 0 0 1 222 2777 )" />
  </g>
</svg>