<?xml version="1.0" encoding="utf-8"?>
<svg version="1.1" xmlns:xlink="http://www.w3.org/1999/xlink" width="22px" height="30px" xmlns="http://www.w3.org/2000/svg">
  <g transform="matrix(1 0 0 1 -1202 -1553 )">
    <path d="M 21.4557291666667 0.46875  C 21.8185763888889 0.781249999999996  22 1.15131578947368  22 1.57894736842105  L 22 28.4210526315789  C 22 28.8486842105263  21.8185763888889 29.21875  21.4557291666667 29.53125  C 21.0928819444444 29.84375  20.6631944444444 30  20.1666666666667 30  C 19.6701388888889 30  19.2404513888889 29.84375  18.8776041666667 29.53125  L 9.33854166666667 21.3157894736842  L 1.83333333333333 21.3157894736842  C 1.33680555555556 21.3157894736842  0.907118055555556 21.1595394736842  0.544270833333333 20.8470394736842  C 0.181423611111111 20.5345394736842  0 20.1644736842105  0 19.7368421052632  L 0 10.2631578947368  C 0 9.83552631578947  0.181423611111111 9.46546052631579  0.544270833333333 9.15296052631579  C 0.907118055555556 8.84046052631579  1.33680555555556 8.68421052631579  1.83333333333333 8.68421052631579  L 9.33854166666667 8.68421052631579  L 18.8776041666667 0.46875  C 19.2404513888889 0.156249999999998  19.6701388888889 0  20.1666666666667 0  C 20.6631944444444 0  21.0928819444444 0.156249999999998  21.4557291666667 0.46875  Z " fill-rule="nonzero" fill="#a1a1a1" stroke="none" transform="matrix(1 0 0 1 1202 1553 )" />
  </g>
</svg>