<?xml version="1.0" encoding="utf-8"?>
<svg version="1.1" xmlns:xlink="http://www.w3.org/1999/xlink" width="38px" height="32px" xmlns="http://www.w3.org/2000/svg">
  <g transform="matrix(1 0 0 1 -1400 -1552 )">
    <path d="M 17.1045673076923 2.74542897327708  C 17.3938301282051 3.03047351148617  17.5384615384615 3.3680262541022  18 3.75808720112517  L 18 28.2419127988748  C 17.5384615384615 28.6319737458978  17.3938301282051 28.9695264885138  17.1045673076923 29.2545710267229  C 16.8153044871795 29.539615564932  16.4727564102564 29.6821378340366  16.0769230769231 29.6821378340366  C 15.6810897435897 29.6821378340366  15.3385416666667 29.539615564932  15.0492788461538 29.2545710267229  L 7.44471153846154 21.760900140647  L 1.46153846153846 21.760900140647  C 1.06570512820513 21.760900140647  0.723157051282051 21.6183778715424  0.433894230769231 21.3333333333333  C 0.14463141025641 21.0482887951242  0 20.7107360525082  0 20.3206751054852  L 0 11.6793248945148  C 0 11.2892639474918  0.14463141025641 10.9517112048758  0.433894230769231 10.6666666666667  C 0.723157051282051 10.3816221284576  1.06570512820513 10.239099859353  1.46153846153846 10.239099859353  L 7.44471153846154 10.239099859353  L 15.0492788461538 2.74542897327708  C 15.3385416666667 2.46038443506798  15.6810897435897 2.31786216596343  16.0769230769231 2.31786216596343  C 16.4727564102564 2.31786216596343  16.8153044871795 2.46038443506798  17.1045673076923 2.74542897327708  Z M 25.3371394230769 12.8045007032349  C 25.9841746794872 13.7946554149086  26.3076923076923 14.8598218471636  26.3076923076923 16  C 26.3076923076923 17.1401781528364  25.9841746794872 18.2015939990624  25.3371394230769 19.1842475386779  C 24.6901041666667 20.1669010782935  23.833733974359 20.868260665729  22.7680288461538 21.2883263009845  C 22.6157852564103 21.3633380215659  22.4254807692308 21.4008438818565  22.1971153846154 21.4008438818565  C 21.8012820512821 21.4008438818565  21.458733974359 21.2620721987811  21.1694711538462 20.9845288326301  C 20.8802083333333 20.7069854664791  20.7355769230769 20.365682137834  20.7355769230769 19.9606188466948  C 20.7355769230769 19.6455696202532  20.8269230769231 19.3792780121894  21.0096153846154 19.1617440225035  C 21.1923076923077 18.9442100328176  21.4130608974359 18.7566807313643  21.671875 18.5991561181435  C 21.9306891025641 18.4416315049226  22.1895032051282 18.2691045475856  22.4483173076923 18.0815752461322  C 22.7071314102564 17.8940459446789  22.9278846153846 17.624003750586  23.1105769230769 17.2714486638537  C 23.2932692307692 16.9188935771214  23.3846153846154 16.4950773558368  23.3846153846154 16  C 23.3846153846154 15.5049226441632  23.2932692307692 15.0811064228786  23.1105769230769 14.7285513361463  C 22.9278846153846 14.375996249414  22.7071314102564 14.1059540553211  22.4483173076923 13.9184247538678  C 22.1895032051282 13.7308954524144  21.9306891025641 13.5583684950774  21.671875 13.4008438818565  C 21.4130608974359 13.2433192686357  21.1923076923077 13.0557899671824  21.0096153846154 12.8382559774965  C 20.8269230769231 12.6207219878106  20.7355769230769 12.3544303797468  20.7355769230769 12.0393811533052  C 20.7355769230769 11.634317862166  20.8802083333333 11.2930145335209  21.1694711538462 11.0154711673699  C 21.458733974359 10.7379278012189  21.8012820512821 10.5991561181435  22.1971153846154 10.5991561181435  C 22.4254807692308 10.5991561181435  22.6157852564103 10.6366619784341  22.7680288461538 10.7116736990155  C 23.833733974359 11.1167369901547  24.6901041666667 11.8143459915612  25.3371394230769 12.8045007032349  Z M 30.2127403846154 9.64275668073136  C 31.5068108974359 11.5855602437881  32.1538461538462 13.704641350211  32.1538461538462 16  C 32.1538461538462 18.295358649789  31.5068108974359 20.4144397562119  30.2127403846154 22.3572433192686  C 28.9186698717949 24.3000468823254  27.2059294871795 25.7140178152836  25.0745192307692 26.5991561181435  C 24.8766025641026 26.6741678387248  24.6862980769231 26.7116736990155  24.5036057692308 26.7116736990155  C 24.0925480769231 26.7116736990155  23.7423878205128 26.5691514299109  23.453125 26.2841068917018  C 23.1638621794872 25.9990623534927  23.0192307692308 25.6615096108767  23.0192307692308 25.2714486638537  C 23.0192307692308 24.6863572433193  23.3161057692308 24.2437880918894  23.9098557692308 23.943741209564  C 24.7624198717949 23.5086732301922  25.3409455128205 23.1786216596343  25.6454326923077 22.9535864978903  C 26.7720352564103 22.1434599156118  27.6512419871795 21.1270511017346  28.2830528846154 19.9043600562588  C 28.9148637820513 18.6816690107829  29.2307692307692 17.3802156586967  29.2307692307692 16  C 29.2307692307692 14.6197843413033  28.9148637820513 13.3183309892171  28.2830528846154 12.0956399437412  C 27.6512419871795 10.8729488982654  26.7720352564103 9.85654008438819  25.6454326923077 9.0464135021097  C 25.3409455128205 8.82137834036568  24.7624198717949 8.49132676980778  23.9098557692308 8.056258790436  C 23.3161057692308 7.75621190811064  23.0192307692308 7.31364275668073  23.0192307692308 6.72855133614627  C 23.0192307692308 6.3384903891233  23.1638621794872 6.00093764650726  23.453125 5.71589310829817  C 23.7423878205128 5.43084857008908  24.0849358974359 5.28832630098453  24.4807692307692 5.28832630098453  C 24.6786858974359 5.28832630098453  24.8766025641026 5.32583216127519  25.0745192307692 5.40084388185654  C 27.2059294871795 6.28598218471636  28.9186698717949 7.69995311767463  30.2127403846154 9.64275668073136  Z M 35.0997596153846 6.49226441631505  C 37.0332532051282 9.38021565869667  38 12.5494608532583  38 16  C 38 19.4505391467417  37.0332532051282 22.6197843413033  35.0997596153846 25.507735583685  C 33.166266025641 28.3956868260666  30.5933493589744 30.5222691045476  27.3810096153846 31.887482419128  C 27.1830929487179 31.9624941397093  26.9851762820513 32  26.7872596153846 32  C 26.3914262820513 32  26.0488782051282 31.8574777308955  25.7596153846154 31.5724331926864  C 25.4703525641026 31.2873886544773  25.3257211538462 30.9498359118612  25.3257211538462 30.5597749648383  C 25.3257211538462 30.0196905766526  25.6225961538462 29.5771214252227  26.2163461538462 29.2320675105485  C 26.3229166666667 29.1720581340835  26.4941907051282 29.093295827473  26.7301682692308 28.9957805907173  C 26.9661458333333 28.8982653539616  27.1374198717949 28.8195030473512  27.2439903846154 28.7594936708861  C 27.9443108974359 28.3844350679794  28.5685096153846 28.0018752930145  29.1165865384615 27.6118143459916  C 30.9891826923077 26.2466010314112  32.4507211538462 24.5438349742147  33.5012019230769 22.5035161744023  C 34.5516826923077 20.4631973745898  35.0769230769231 18.295358649789  35.0769230769231 16  C 35.0769230769231 13.704641350211  34.5516826923077 11.5368026254102  33.5012019230769 9.49648382559775  C 32.4507211538462 7.45616502578528  30.9891826923077 5.75339896858884  29.1165865384615 4.38818565400844  C 28.5685096153846 3.99812470698546  27.9443108974359 3.61556493202063  27.2439903846154 3.24050632911392  C 27.1374198717949 3.18049695264885  26.9661458333333 3.10173464603844  26.7301682692308 3.0042194092827  C 26.4941907051282 2.90670417252695  26.3229166666667 2.82794186591655  26.2163461538462 2.76793248945148  C 25.6225961538462 2.4228785747773  25.3257211538462 1.9803094233474  25.3257211538462 1.44022503516175  C 25.3257211538462 1.05016408813877  25.4703525641026 0.712611345522735  25.7596153846154 0.427566807313642  C 26.0488782051282 0.142522269104546  26.3914262820513 0  26.7872596153846 0  C 26.9851762820513 0  27.1830929487179 0.0375058602906684  27.3810096153846 0.112517580872012  C 30.5933493589744 1.47773089545241  33.166266025641 3.60431317393342  35.0997596153846 6.49226441631505  Z " fill-rule="nonzero" fill="#000000" stroke="none" transform="matrix(1 0 0 1 1400 1552 )" />
  </g>
</svg>