<?xml version="1.0" encoding="utf-8"?>
<svg version="1.1" xmlns:xlink="http://www.w3.org/1999/xlink" width="21px" height="21px" xmlns="http://www.w3.org/2000/svg">
  <g transform="matrix(1 0 0 1 -1304 -1559 )">
    <path d="M 1314.5 1559  C 1320.38 1559  1325 1563.62  1325 1569.5  C 1325 1575.38  1320.38 1580  1314.5 1580  C 1308.62 1580  1304 1575.38  1304 1569.5  C 1304 1563.62  1308.62 1559  1314.5 1559  Z " fill-rule="nonzero" fill="#ffffff" stroke="none" />
    <path d="M 1314.5 1559.5  C 1320.1 1559.5  1324.5 1563.9  1324.5 1569.5  C 1324.5 1575.1  1320.1 1579.5  1314.5 1579.5  C 1308.9 1579.5  1304.5 1575.1  1304.5 1569.5  C 1304.5 1563.9  1308.9 1559.5  1314.5 1559.5  Z " stroke-width="1" stroke="#797979" fill="none" />
  </g>
</svg>