<?xml version="1.0" encoding="utf-8"?>
<svg version="1.1" xmlns:xlink="http://www.w3.org/1999/xlink" width="25px" height="19px" xmlns="http://www.w3.org/2000/svg">
  <g transform="matrix(1 0 0 1 -1408 -1644 )">
    <path d="M 24.5483870967742 2.62289562289562  C 24.8494623655914 2.92143658810325  25 3.28395061728395  25 3.71043771043771  C 25 4.13692480359147  24.8494623655914 4.49943883277216  24.5483870967742 4.7979797979798  L 12.8709677419355 16.3771043771044  L 10.6774193548387 18.5521885521886  C 10.3763440860215 18.8507295173962  10.010752688172 19  9.58064516129032 19  C 9.1505376344086 19  8.78494623655914 18.8507295173962  8.48387096774194 18.5521885521886  L 6.29032258064516 16.3771043771044  L 0.451612903225806 10.5875420875421  C 0.150537634408602 10.2890011223345  0 9.92648709315376  0 9.5  C 0 9.07351290684624  0.150537634408602 8.71099887766554  0.451612903225806 8.41245791245791  L 2.64516129032258 6.23737373737374  C 2.94623655913979 5.9388327721661  3.31182795698925 5.78956228956229  3.74193548387097 5.78956228956229  C 4.17204301075269 5.78956228956229  4.53763440860215 5.9388327721661  4.83870967741936 6.23737373737374  L 9.58064516129032 10.9553872053872  L 20.1612903225806 0.447811447811448  C 20.4623655913979 0.149270482603815  20.8279569892473 0  21.258064516129 0  C 21.6881720430108 0  22.0537634408602 0.149270482603815  22.3548387096774 0.447811447811448  L 24.5483870967742 2.62289562289562  Z " fill-rule="nonzero" fill="#000000" stroke="none" transform="matrix(1 0 0 1 1408 1644 )" />
  </g>
</svg>