<?xml version="1.0" encoding="utf-8"?>
<svg version="1.1" xmlns:xlink="http://www.w3.org/1999/xlink" width="13px" height="21px" xmlns="http://www.w3.org/2000/svg">
  <g transform="matrix(1 0 0 1 -221 -3211 )">
    <path d="M 8.7978515625 9.474609375  C 9.4326171875 8.791015625  9.75 7.96614583333333  9.75 7  C 9.75 6.03385416666667  9.4326171875 5.208984375  8.7978515625 4.525390625  C 8.1630859375 3.841796875  7.39713541666667 3.5  6.5 3.5  C 5.60286458333333 3.5  4.8369140625 3.841796875  4.2021484375 4.525390625  C 3.5673828125 5.208984375  3.25 6.03385416666667  3.25 7  C 3.25 7.96614583333333  3.5673828125 8.791015625  4.2021484375 9.474609375  C 4.8369140625 10.158203125  5.60286458333333 10.5  6.5 10.5  C 7.39713541666667 10.5  8.1630859375 10.158203125  8.7978515625 9.474609375  Z M 11.095703125 2.05078125  C 12.365234375 3.41796875  13 5.06770833333333  13 7  C 13 7.99348958333333  12.8603515625 8.80924479166667  12.5810546875 9.447265625  L 7.9599609375 20.029296875  C 7.82454427083333 20.330078125  7.62353515625 20.5670572916667  7.35693359375 20.740234375  C 7.09033203125 20.9134114583333  6.8046875 21  6.5 21  C 6.1953125 21  5.90966796875 20.9134114583333  5.64306640625 20.740234375  C 5.37646484375 20.5670572916667  5.1796875 20.330078125  5.052734375 20.029296875  L 0.4189453125 9.447265625  C 0.1396484375 8.80924479166667  0 7.99348958333333  0 7  C 0 5.06770833333333  0.634765625 3.41796875  1.904296875 2.05078125  C 3.173828125 0.683593750000001  4.70572916666667 0  6.5 0  C 8.29427083333333 0  9.826171875 0.683593750000001  11.095703125 2.05078125  Z " fill-rule="nonzero" fill="#6f6f6f" stroke="none" transform="matrix(1 0 0 1 221 3211 )" />
  </g>
</svg>