<?xml version="1.0" encoding="utf-8"?>
<svg version="1.1" xmlns:xlink="http://www.w3.org/1999/xlink" width="130px" height="130px" xmlns="http://www.w3.org/2000/svg">
  <g transform="matrix(1 0 0 1 -135 -1511 )">
    <path d="M 200 1511.5  C 236.12 1511.5  264.5 1539.88  264.5 1576  C 264.5 1612.12  236.12 1640.5  200 1640.5  C 163.88 1640.5  135.5 1612.12  135.5 1576  C 135.5 1539.88  163.88 1511.5  200 1511.5  Z " fill-rule="nonzero" fill="#ffffff" stroke="none" />
    <path d="M 200 1511.5  C 236.12 1511.5  264.5 1539.88  264.5 1576  C 264.5 1612.12  236.12 1640.5  200 1640.5  C 163.88 1640.5  135.5 1612.12  135.5 1576  C 135.5 1539.88  163.88 1511.5  200 1511.5  Z " stroke-width="1" stroke-dasharray="17,4,5,4" stroke="#797979" fill="none" stroke-dashoffset="0.5" />
  </g>
</svg>