<?xml version="1.0" encoding="utf-8"?>
<svg version="1.1" xmlns:xlink="http://www.w3.org/1999/xlink" width="51px" height="26px" xmlns="http://www.w3.org/2000/svg">
  <defs>
    <mask fill="white" id="clip1">
      <path d="M 44.0569306930693 0.110169491525426  L 6.18564356435643 0.110169491525426  C 6.18564356435643 0.110169491525426  0.390667543874279 5.77761043308649  0.378712871287129 13  C 0.366669651337353 20.2758852643794  6.18564356435643 26  6.18564356435643 26  L 44.0569306930693 26  C 44.0569306930693 26  50.508005653553 20.2750921940644  50.4950495049505 13  C 50.4821858101192 5.77682213092737  44.0569306930693 0.110169491525426  44.0569306930693 0.110169491525426  Z " fill-rule="evenodd" />
    </mask>
  </defs>
  <g transform="matrix(1 0 0 1 -273 -1672 )">
    <path d="M 44.0569306930693 0.110169491525426  L 6.18564356435643 0.110169491525426  C 6.18564356435643 0.110169491525426  0.390667543874279 5.77761043308649  0.378712871287129 13  C 0.366669651337353 20.2758852643794  6.18564356435643 26  6.18564356435643 26  L 44.0569306930693 26  C 44.0569306930693 26  50.508005653553 20.2750921940644  50.4950495049505 13  C 50.4821858101192 5.77682213092737  44.0569306930693 0.110169491525426  44.0569306930693 0.110169491525426  Z " fill-rule="nonzero" fill="#ffffff" stroke="none" transform="matrix(1 0 0 1 273 1672 )" />
    <path d="M 44.0569306930693 0.110169491525426  L 6.18564356435643 0.110169491525426  C 6.18564356435643 0.110169491525426  0.390667543874279 5.77761043308649  0.378712871287129 13  C 0.366669651337353 20.2758852643794  6.18564356435643 26  6.18564356435643 26  L 44.0569306930693 26  C 44.0569306930693 26  50.508005653553 20.2750921940644  50.4950495049505 13  C 50.4821858101192 5.77682213092737  44.0569306930693 0.110169491525426  44.0569306930693 0.110169491525426  Z " stroke-width="2" stroke="#797979" fill="none" transform="matrix(1 0 0 1 273 1672 )" mask="url(#clip1)" />
  </g>
</svg>