<?xml version="1.0" encoding="utf-8"?>
<svg version="1.1" xmlns:xlink="http://www.w3.org/1999/xlink" width="35px" height="35px" xmlns="http://www.w3.org/2000/svg">
  <g transform="matrix(1 0 0 1 -289 -1814 )">
    <path d="M 27.275390625 19.9837239583333  C 27.5640190972222 19.6950954861111  27.7083333333333 19.3532986111111  27.7083333333333 18.9583333333333  L 27.7083333333333 16.0416666666667  C 27.7083333333333 15.6467013888889  27.5640190972222 15.3049045138889  27.275390625 15.0162760416667  C 26.9867621527778 14.7276475694444  26.6449652777778 14.5833333333333  26.25 14.5833333333333  L 20.4166666666667 14.5833333333333  L 20.4166666666667 8.75  C 20.4166666666667 8.35503472222222  20.2723524305556 8.01323784722222  19.9837239583333 7.724609375  C 19.6950954861111 7.43598090277778  19.3532986111111 7.29166666666667  18.9583333333333 7.29166666666667  L 16.0416666666667 7.29166666666667  C 15.6467013888889 7.29166666666667  15.3049045138889 7.43598090277778  15.0162760416667 7.724609375  C 14.7276475694444 8.01323784722222  14.5833333333333 8.35503472222222  14.5833333333333 8.75  L 14.5833333333333 14.5833333333333  L 8.75 14.5833333333333  C 8.35503472222222 14.5833333333333  8.01323784722222 14.7276475694444  7.724609375 15.0162760416667  C 7.43598090277778 15.3049045138889  7.29166666666667 15.6467013888889  7.29166666666667 16.0416666666667  L 7.29166666666667 18.9583333333333  C 7.29166666666667 19.3532986111111  7.43598090277778 19.6950954861111  7.724609375 19.9837239583333  C 8.01323784722222 20.2723524305556  8.35503472222222 20.4166666666667  8.75 20.4166666666667  L 14.5833333333333 20.4166666666667  L 14.5833333333333 26.25  C 14.5833333333333 26.6449652777778  14.7276475694444 26.9867621527778  15.0162760416667 27.275390625  C 15.3049045138889 27.5640190972222  15.6467013888889 27.7083333333333  16.0416666666667 27.7083333333333  L 18.9583333333333 27.7083333333333  C 19.3532986111111 27.7083333333333  19.6950954861111 27.5640190972222  19.9837239583333 27.275390625  C 20.2723524305556 26.9867621527778  20.4166666666667 26.6449652777778  20.4166666666667 26.25  L 20.4166666666667 20.4166666666667  L 26.25 20.4166666666667  C 26.6449652777778 20.4166666666667  26.9867621527778 20.2723524305556  27.275390625 19.9837239583333  Z M 32.6529947916667 8.7158203125  C 34.2176649305556 11.3970269097222  35 14.3250868055556  35 17.5  C 35 20.6749131944444  34.2176649305556 23.6029730902778  32.6529947916667 26.2841796875  C 31.0883246527778 28.9653862847222  28.9653862847222 31.0883246527778  26.2841796875 32.6529947916667  C 23.6029730902778 34.2176649305556  20.6749131944444 35  17.5 35  C 14.3250868055556 35  11.3970269097222 34.2176649305556  8.7158203125 32.6529947916667  C 6.03461371527778 31.0883246527778  3.91167534722222 28.9653862847222  2.34700520833333 26.2841796875  C 0.782335069444444 23.6029730902778  0 20.6749131944444  0 17.5  C 0 14.3250868055556  0.782335069444444 11.3970269097222  2.34700520833333 8.7158203125  C 3.91167534722222 6.03461371527778  6.03461371527778 3.91167534722222  8.7158203125 2.34700520833333  C 11.3970269097222 0.782335069444441  14.3250868055556 0  17.5 0  C 20.6749131944444 0  23.6029730902778 0.782335069444441  26.2841796875 2.34700520833333  C 28.9653862847222 3.91167534722222  31.0883246527778 6.03461371527778  32.6529947916667 8.7158203125  Z " fill-rule="nonzero" fill="#a2a2a2" stroke="none" transform="matrix(1 0 0 1 289 1814 )" />
  </g>
</svg>